
<svg width="580px" height="124px" viewBox="0 0 580 124" version="1.1" xmlns="http://www.w3.org/2000/svg" xmlns:xlink="http://www.w3.org/1999/xlink">
    <!-- Generator: Sketch 48.1 (47250) - http://www.bohemiancoding.com/sketch -->
    <desc>Created with Sketch.</desc>
    <defs></defs>
    <g id="Page-1" stroke="none" stroke-width="1" fill="none" fill-rule="evenodd">
        <g id="Artboard" transform="translate(-222.000000, -2569.000000)" fill="#FFFFFF">
            <g id="加载占位图" transform="translate(222.000000, 2569.000000)">
                <path d="M0,0 L580,0 L580,124 L0,124 L0,0 Z M82,50 C80.8954305,50 80,50.8954305 80,52 L80,58 C80,59.1045695 80.8954305,60 82,60 L518,60 C519.104569,60 520,59.1045695 520,58 L520,52 C520,50.8954305 519.104569,50 518,50 L82,50 Z M82,72 C80.8954305,72 80,72.8954305 80,74 L80,80 C80,81.1045695 80.8954305,82 82,82 L558,82 C559.104569,82 560,81.1045695 560,80 L560,74 C560,72.8954305 559.104569,72 558,72 L82,72 Z M82,94 C80.8954305,94 80,94.8954305 80,96 L80,102 C80,103.104569 80.8954305,104 82,104 L278,104 C279.104569,104 280,103.104569 280,102 L280,96 C280,94.8954305 279.104569,94 278,94 L82,94 Z M82,24 C80.8954305,24 80,24.8954305 80,26 L80,36 C80,37.1045695 80.8954305,38 82,38 L198,38 C199.104569,38 200,37.1045695 200,36 L200,26 C200,24.8954305 199.104569,24 198,24 L82,24 Z M45,70 C58.8071187,70 70,58.8071187 70,45 C70,31.1928813 58.8071187,20 45,20 C31.1928813,20 20,31.1928813 20,45 C20,58.8071187 31.1928813,70 45,70 Z" id="镂空"></path>
            </g>
        </g>
    </g>
</svg>